<svg xmlns="http://www.w3.org/2000/svg" version="1.1" xmlns:xlink="http://www.w3.org/1999/xlink" xmlns:svgjs="http://svgjs.com/svgjs" width="1440" height="560" preserveAspectRatio="none" viewBox="0 0 1440 560"><g mask="url(&quot;#SvgjsMask1000&quot;)" fill="none"><rect width="1440" height="560" x="0" y="0" fill="#0e2a47"></rect><path d="M-80.88 340.53L-80.88 340.53" stroke="#132e65" stroke-width="1.5"></path><path d="M-80.88 340.53L-57.98 516.42" stroke="#132e65" stroke-width="1.5"></path><path d="M-80.88 340.53L110.66 381.18" stroke="#132e65" stroke-width="1.5"></path><path d="M-80.88 340.53L74.02 499.11" stroke="#132e65" stroke-width="1.5"></path><path d="M-80.88 340.53L-45.6 645.14" stroke="#132e65" stroke-width="1.5"></path><path d="M-80.88 340.53L252.1 409.21" stroke="#132e65" stroke-width="1.5"></path><path d="M-80.88 340.53L243.9 499.04" stroke="#132e65" stroke-width="1.5"></path><path d="M-57.98 516.42L-57.98 516.42" stroke="#132e65" stroke-width="1.5"></path><path d="M-57.98 516.42L-45.6 645.14" stroke="#132e65" stroke-width="1.5"></path><path d="M-57.98 516.42L74.02 499.11" stroke="#132e65" stroke-width="1.5"></path><path d="M-57.98 516.42L110.66 381.18" stroke="#132e65" stroke-width="1.5"></path><path d="M-45.6 645.14L-45.6 645.14" stroke="#132e65" stroke-width="1.5"></path><path d="M-45.6 645.14L87.61 696.28" stroke="#132e65" stroke-width="1.5"></path><path d="M-45.6 645.14L74.02 499.11" stroke="#132e65" stroke-width="1.5"></path><path d="M-45.6 645.14L230.83 662.63" stroke="#132e65" stroke-width="1.5"></path><path d="M110.66 381.18L110.66 381.18" stroke="#132e65" stroke-width="1.5"></path><path d="M110.66 381.18L74.02 499.11" stroke="#132e65" stroke-width="1.5"></path><path d="M110.66 381.18L252.1 409.21" stroke="#132e65" stroke-width="1.5"></path><path d="M110.66 381.18L243.9 499.04" stroke="#132e65" stroke-width="1.5"></path><path d="M74.02 499.11L74.02 499.11" stroke="#132e65" stroke-width="1.5"></path><path d="M87.61 696.28L87.61 696.28" stroke="#132e65" stroke-width="1.5"></path><path d="M87.61 696.28L230.83 662.63" stroke="#132e65" stroke-width="1.5"></path><path d="M87.61 696.28L74.02 499.11" stroke="#132e65" stroke-width="1.5"></path><path d="M87.61 696.28L-57.98 516.42" stroke="#132e65" stroke-width="1.5"></path><path d="M87.61 696.28L243.9 499.04" stroke="#132e65" stroke-width="1.5"></path><path d="M252.1 409.21L252.1 409.21" stroke="#132e65" stroke-width="1.5"></path><path d="M252.1 409.21L243.9 499.04" stroke="#132e65" stroke-width="1.5"></path><path d="M252.1 409.21L343.79 383.27" stroke="#132e65" stroke-width="1.5"></path><path d="M252.1 409.21L341.23 539.22" stroke="#132e65" stroke-width="1.5"></path><path d="M243.9 499.04L243.9 499.04" stroke="#132e65" stroke-width="1.5"></path><path d="M243.9 499.04L341.23 539.22" stroke="#132e65" stroke-width="1.5"></path><path d="M230.83 662.63L230.83 662.63" stroke="#132e65" stroke-width="1.5"></path><path d="M230.83 662.63L352.62 661.12" stroke="#132e65" stroke-width="1.5"></path><path d="M343.79 383.27L343.79 383.27" stroke="#132e65" stroke-width="1.5"></path><path d="M343.79 383.27L243.9 499.04" stroke="#132e65" stroke-width="1.5"></path><path d="M343.79 383.27L341.23 539.22" stroke="#132e65" stroke-width="1.5"></path><path d="M343.79 383.27L536.81 397.65" stroke="#132e65" stroke-width="1.5"></path><path d="M343.79 383.27L521.39 515.17" stroke="#132e65" stroke-width="1.5"></path><path d="M341.23 539.22L341.23 539.22" stroke="#132e65" stroke-width="1.5"></path><path d="M341.23 539.22L352.62 661.12" stroke="#132e65" stroke-width="1.5"></path><path d="M352.62 661.12L352.62 661.12" stroke="#132e65" stroke-width="1.5"></path><path d="M352.62 661.12L504.16 669.65" stroke="#132e65" stroke-width="1.5"></path><path d="M352.62 661.12L243.9 499.04" stroke="#132e65" stroke-width="1.5"></path><path d="M536.81 397.65L536.81 397.65" stroke="#132e65" stroke-width="1.5"></path><path d="M536.81 397.65L521.39 515.17" stroke="#132e65" stroke-width="1.5"></path><path d="M536.81 397.65L694.29 560.32" stroke="#132e65" stroke-width="1.5"></path><path d="M521.39 515.17L521.39 515.17" stroke="#132e65" stroke-width="1.5"></path><path d="M521.39 515.17L504.16 669.65" stroke="#132e65" stroke-width="1.5"></path><path d="M504.16 669.65L504.16 669.65" stroke="#132e65" stroke-width="1.5"></path><path d="M504.16 669.65L709.34 665.09" stroke="#132e65" stroke-width="1.5"></path><path d="M694.29 560.32L694.29 560.32" stroke="#132e65" stroke-width="1.5"></path><path d="M694.29 560.32L709.34 665.09" stroke="#132e65" stroke-width="1.5"></path><path d="M694.29 560.32L860.93 543.86" stroke="#132e65" stroke-width="1.5"></path><path d="M694.29 560.32L816.7 676.54" stroke="#132e65" stroke-width="1.5"></path><path d="M694.29 560.32L521.39 515.17" stroke="#132e65" stroke-width="1.5"></path><path d="M694.29 560.32L504.16 669.65" stroke="#132e65" stroke-width="1.5"></path><path d="M709.34 665.09L709.34 665.09" stroke="#132e65" stroke-width="1.5"></path><path d="M709.34 665.09L816.7 676.54" stroke="#132e65" stroke-width="1.5"></path><path d="M709.34 665.09L860.93 543.86" stroke="#132e65" stroke-width="1.5"></path><path d="M859.33 104.91L859.33 104.91" stroke="#132e65" stroke-width="1.5"></path><path d="M859.33 104.91L992.25 45.3" stroke="#132e65" stroke-width="1.5"></path><path d="M859.33 104.91L817.14 256.92" stroke="#132e65" stroke-width="1.5"></path><path d="M859.33 104.91L1004.86 188.69" stroke="#132e65" stroke-width="1.5"></path><path d="M859.33 104.91L950.32 -88.76" stroke="#132e65" stroke-width="1.5"></path><path d="M859.33 104.91L951.63 343.84" stroke="#132e65" stroke-width="1.5"></path><path d="M817.14 256.92L817.14 256.92" stroke="#132e65" stroke-width="1.5"></path><path d="M817.14 256.92L951.63 343.84" stroke="#132e65" stroke-width="1.5"></path><path d="M817.14 256.92L1004.86 188.69" stroke="#132e65" stroke-width="1.5"></path><path d="M817.14 256.92L992.25 45.3" stroke="#132e65" stroke-width="1.5"></path><path d="M860.93 543.86L860.93 543.86" stroke="#132e65" stroke-width="1.5"></path><path d="M860.93 543.86L985.44 540.74" stroke="#132e65" stroke-width="1.5"></path><path d="M860.93 543.86L816.7 676.54" stroke="#132e65" stroke-width="1.5"></path><path d="M860.93 543.86L951.63 343.84" stroke="#132e65" stroke-width="1.5"></path><path d="M860.93 543.86L1142.46 498.58" stroke="#132e65" stroke-width="1.5"></path><path d="M816.7 676.54L816.7 676.54" stroke="#132e65" stroke-width="1.5"></path><path d="M950.32 -88.76L950.32 -88.76" stroke="#132e65" stroke-width="1.5"></path><path d="M950.32 -88.76L992.25 45.3" stroke="#132e65" stroke-width="1.5"></path><path d="M950.32 -88.76L1135.17 -53.26" stroke="#132e65" stroke-width="1.5"></path><path d="M992.25 45.3L992.25 45.3" stroke="#132e65" stroke-width="1.5"></path><path d="M992.25 45.3L1004.86 188.69" stroke="#132e65" stroke-width="1.5"></path><path d="M992.25 45.3L1149.86 106.22" stroke="#132e65" stroke-width="1.5"></path><path d="M992.25 45.3L1135.17 -53.26" stroke="#132e65" stroke-width="1.5"></path><path d="M1004.86 188.69L1004.86 188.69" stroke="#132e65" stroke-width="1.5"></path><path d="M1004.86 188.69L1099.63 257.16" stroke="#132e65" stroke-width="1.5"></path><path d="M1004.86 188.69L951.63 343.84" stroke="#132e65" stroke-width="1.5"></path><path d="M1004.86 188.69L1149.86 106.22" stroke="#132e65" stroke-width="1.5"></path><path d="M951.63 343.84L951.63 343.84" stroke="#132e65" stroke-width="1.5"></path><path d="M951.63 343.84L1099.63 257.16" stroke="#132e65" stroke-width="1.5"></path><path d="M951.63 343.84L985.44 540.74" stroke="#132e65" stroke-width="1.5"></path><path d="M951.63 343.84L1159.89 363.01" stroke="#132e65" stroke-width="1.5"></path><path d="M985.44 540.74L985.44 540.74" stroke="#132e65" stroke-width="1.5"></path><path d="M985.44 540.74L1142.46 498.58" stroke="#132e65" stroke-width="1.5"></path><path d="M1135.17 -53.26L1135.17 -53.26" stroke="#132e65" stroke-width="1.5"></path><path d="M1135.17 -53.26L1277.68 -62.67" stroke="#132e65" stroke-width="1.5"></path><path d="M1135.17 -53.26L1149.86 106.22" stroke="#132e65" stroke-width="1.5"></path><path d="M1135.17 -53.26L1294.77 95.84" stroke="#132e65" stroke-width="1.5"></path><path d="M1135.17 -53.26L1004.86 188.69" stroke="#132e65" stroke-width="1.5"></path><path d="M1149.86 106.22L1149.86 106.22" stroke="#132e65" stroke-width="1.5"></path><path d="M1149.86 106.22L1294.77 95.84" stroke="#132e65" stroke-width="1.5"></path><path d="M1149.86 106.22L1099.63 257.16" stroke="#132e65" stroke-width="1.5"></path><path d="M1099.63 257.16L1099.63 257.16" stroke="#132e65" stroke-width="1.5"></path><path d="M1099.63 257.16L1159.89 363.01" stroke="#132e65" stroke-width="1.5"></path><path d="M1159.89 363.01L1159.89 363.01" stroke="#132e65" stroke-width="1.5"></path><path d="M1159.89 363.01L1142.46 498.58" stroke="#132e65" stroke-width="1.5"></path><path d="M1142.46 498.58L1142.46 498.58" stroke="#132e65" stroke-width="1.5"></path><path d="M1157.12 662.26L1157.12 662.26" stroke="#132e65" stroke-width="1.5"></path><path d="M1157.12 662.26L1284.44 668.52" stroke="#132e65" stroke-width="1.5"></path><path d="M1157.12 662.26L1142.46 498.58" stroke="#132e65" stroke-width="1.5"></path><path d="M1277.68 -62.67L1277.68 -62.67" stroke="#132e65" stroke-width="1.5"></path><path d="M1277.68 -62.67L1414.95 -56.45" stroke="#132e65" stroke-width="1.5"></path><path d="M1277.68 -62.67L1294.77 95.84" stroke="#132e65" stroke-width="1.5"></path><path d="M1277.68 -62.67L1400.86 109.29" stroke="#132e65" stroke-width="1.5"></path><path d="M1277.68 -62.67L1149.86 106.22" stroke="#132e65" stroke-width="1.5"></path><path d="M1277.68 -62.67L1542.45 -90.14" stroke="#132e65" stroke-width="1.5"></path><path d="M1294.77 95.84L1294.77 95.84" stroke="#132e65" stroke-width="1.5"></path><path d="M1294.77 95.84L1400.86 109.29" stroke="#132e65" stroke-width="1.5"></path><path d="M1294.77 95.84L1294.45 256.46" stroke="#132e65" stroke-width="1.5"></path><path d="M1294.77 95.84L1406.44 249.58" stroke="#132e65" stroke-width="1.5"></path><path d="M1294.45 256.46L1294.45 256.46" stroke="#132e65" stroke-width="1.5"></path><path d="M1294.45 256.46L1305.61 359.99" stroke="#132e65" stroke-width="1.5"></path><path d="M1294.45 256.46L1406.44 249.58" stroke="#132e65" stroke-width="1.5"></path><path d="M1305.61 359.99L1305.61 359.99" stroke="#132e65" stroke-width="1.5"></path><path d="M1305.61 359.99L1416.01 402.94" stroke="#132e65" stroke-width="1.5"></path><path d="M1310.85 527.41L1310.85 527.41" stroke="#132e65" stroke-width="1.5"></path><path d="M1310.85 527.41L1399.86 529.73" stroke="#132e65" stroke-width="1.5"></path><path d="M1310.85 527.41L1284.44 668.52" stroke="#132e65" stroke-width="1.5"></path><path d="M1310.85 527.41L1416.01 402.94" stroke="#132e65" stroke-width="1.5"></path><path d="M1310.85 527.41L1305.61 359.99" stroke="#132e65" stroke-width="1.5"></path><path d="M1310.85 527.41L1142.46 498.58" stroke="#132e65" stroke-width="1.5"></path><path d="M1284.44 668.52L1284.44 668.52" stroke="#132e65" stroke-width="1.5"></path><path d="M1284.44 668.52L1445.41 680.82" stroke="#132e65" stroke-width="1.5"></path><path d="M1284.44 668.52L1399.86 529.73" stroke="#132e65" stroke-width="1.5"></path><path d="M1414.95 -56.45L1414.95 -56.45" stroke="#132e65" stroke-width="1.5"></path><path d="M1414.95 -56.45L1542.45 -90.14" stroke="#132e65" stroke-width="1.5"></path><path d="M1414.95 -56.45L1400.86 109.29" stroke="#132e65" stroke-width="1.5"></path><path d="M1414.95 -56.45L1294.77 95.84" stroke="#132e65" stroke-width="1.5"></path><path d="M1414.95 -56.45L1566.4 90.44" stroke="#132e65" stroke-width="1.5"></path><path d="M1400.86 109.29L1400.86 109.29" stroke="#132e65" stroke-width="1.5"></path><path d="M1400.86 109.29L1406.44 249.58" stroke="#132e65" stroke-width="1.5"></path><path d="M1400.86 109.29L1566.4 90.44" stroke="#132e65" stroke-width="1.5"></path><path d="M1400.86 109.29L1294.45 256.46" stroke="#132e65" stroke-width="1.5"></path><path d="M1406.44 249.58L1406.44 249.58" stroke="#132e65" stroke-width="1.5"></path><path d="M1406.44 249.58L1305.61 359.99" stroke="#132e65" stroke-width="1.5"></path><path d="M1406.44 249.58L1416.01 402.94" stroke="#132e65" stroke-width="1.5"></path><path d="M1406.44 249.58L1565.05 196.33" stroke="#132e65" stroke-width="1.5"></path><path d="M1416.01 402.94L1416.01 402.94" stroke="#132e65" stroke-width="1.5"></path><path d="M1416.01 402.94L1399.86 529.73" stroke="#132e65" stroke-width="1.5"></path><path d="M1416.01 402.94L1580.48 405.67" stroke="#132e65" stroke-width="1.5"></path><path d="M1416.01 402.94L1294.45 256.46" stroke="#132e65" stroke-width="1.5"></path><path d="M1399.86 529.73L1399.86 529.73" stroke="#132e65" stroke-width="1.5"></path><path d="M1445.41 680.82L1445.41 680.82" stroke="#132e65" stroke-width="1.5"></path><path d="M1445.41 680.82L1548.56 667.58" stroke="#132e65" stroke-width="1.5"></path><path d="M1542.45 -90.14L1542.45 -90.14" stroke="#132e65" stroke-width="1.5"></path><path d="M1542.45 -90.14L1566.4 90.44" stroke="#132e65" stroke-width="1.5"></path><path d="M1542.45 -90.14L1400.86 109.29" stroke="#132e65" stroke-width="1.5"></path><path d="M1542.45 -90.14L1565.05 196.33" stroke="#132e65" stroke-width="1.5"></path><path d="M1542.45 -90.14L1294.77 95.84" stroke="#132e65" stroke-width="1.5"></path><path d="M1566.4 90.44L1566.4 90.44" stroke="#132e65" stroke-width="1.5"></path><path d="M1566.4 90.44L1565.05 196.33" stroke="#132e65" stroke-width="1.5"></path><path d="M1565.05 196.33L1565.05 196.33" stroke="#132e65" stroke-width="1.5"></path><path d="M1565.05 196.33L1400.86 109.29" stroke="#132e65" stroke-width="1.5"></path><path d="M1565.05 196.33L1580.48 405.67" stroke="#132e65" stroke-width="1.5"></path><path d="M1565.05 196.33L1416.01 402.94" stroke="#132e65" stroke-width="1.5"></path><path d="M1580.48 405.67L1580.48 405.67" stroke="#132e65" stroke-width="1.5"></path><path d="M1580.48 405.67L1593.46 558.94" stroke="#132e65" stroke-width="1.5"></path><path d="M1593.46 558.94L1593.46 558.94" stroke="#132e65" stroke-width="1.5"></path><path d="M1593.46 558.94L1548.56 667.58" stroke="#132e65" stroke-width="1.5"></path><path d="M1593.46 558.94L1445.41 680.82" stroke="#132e65" stroke-width="1.5"></path><path d="M1593.46 558.94L1399.86 529.73" stroke="#132e65" stroke-width="1.5"></path><path d="M1548.56 667.58L1548.56 667.58" stroke="#132e65" stroke-width="1.5"></path><path d="M1548.56 667.58L1399.86 529.73" stroke="#132e65" stroke-width="1.5"></path><path d="M1548.56 667.58L1580.48 405.67" stroke="#132e65" stroke-width="1.5"></path><path d="M1548.56 667.58L1284.44 668.52" stroke="#132e65" stroke-width="1.5"></path><circle r="5" cx="-80.88" cy="340.53" fill="#132e65"></circle><circle r="5" cx="-57.98" cy="516.42" fill="#132e65"></circle><circle r="5" cx="-45.6" cy="645.14" fill="#132e65"></circle><circle r="5" cx="110.66" cy="381.18" fill="#132e65"></circle><circle r="5" cx="74.02" cy="499.11" fill="#132e65"></circle><circle r="5" cx="87.61" cy="696.28" fill="#132e65"></circle><circle r="5" cx="252.1" cy="409.21" fill="#132e65"></circle><circle r="5" cx="243.9" cy="499.04" fill="#132e65"></circle><circle r="5" cx="230.83" cy="662.63" fill="#132e65"></circle><circle r="5" cx="343.79" cy="383.27" fill="#132e65"></circle><circle r="5" cx="341.23" cy="539.22" fill="#132e65"></circle><circle r="5" cx="352.62" cy="661.12" fill="#132e65"></circle><circle r="5" cx="536.81" cy="397.65" fill="#132e65"></circle><circle r="5" cx="521.39" cy="515.17" fill="#132e65"></circle><circle r="5" cx="504.16" cy="669.65" fill="#132e65"></circle><circle r="5" cx="694.29" cy="560.32" fill="#132e65"></circle><circle r="5" cx="709.34" cy="665.09" fill="#132e65"></circle><circle r="5" cx="859.33" cy="104.91" fill="#132e65"></circle><circle r="5" cx="817.14" cy="256.92" fill="#132e65"></circle><circle r="5" cx="860.93" cy="543.86" fill="#132e65"></circle><circle r="5" cx="816.7" cy="676.54" fill="#132e65"></circle><circle r="5" cx="950.32" cy="-88.76" fill="#132e65"></circle><circle r="5" cx="992.25" cy="45.3" fill="#132e65"></circle><circle r="5" cx="1004.86" cy="188.69" fill="#132e65"></circle><circle r="5" cx="951.63" cy="343.84" fill="#132e65"></circle><circle r="5" cx="985.44" cy="540.74" fill="#132e65"></circle><circle r="5" cx="1135.17" cy="-53.26" fill="#132e65"></circle><circle r="5" cx="1149.86" cy="106.22" fill="#132e65"></circle><circle r="5" cx="1099.63" cy="257.16" fill="#132e65"></circle><circle r="5" cx="1159.89" cy="363.01" fill="#132e65"></circle><circle r="5" cx="1142.46" cy="498.58" fill="#132e65"></circle><circle r="5" cx="1157.12" cy="662.26" fill="#132e65"></circle><circle r="5" cx="1277.68" cy="-62.67" fill="#132e65"></circle><circle r="5" cx="1294.77" cy="95.84" fill="#132e65"></circle><circle r="5" cx="1294.45" cy="256.46" fill="#132e65"></circle><circle r="5" cx="1305.61" cy="359.99" fill="#132e65"></circle><circle r="5" cx="1310.85" cy="527.41" fill="#132e65"></circle><circle r="5" cx="1284.44" cy="668.52" fill="#132e65"></circle><circle r="5" cx="1414.95" cy="-56.45" fill="#132e65"></circle><circle r="5" cx="1400.86" cy="109.29" fill="#132e65"></circle><circle r="5" cx="1406.44" cy="249.58" fill="#132e65"></circle><circle r="5" cx="1416.01" cy="402.94" fill="#132e65"></circle><circle r="5" cx="1399.86" cy="529.73" fill="#132e65"></circle><circle r="5" cx="1445.41" cy="680.82" fill="#132e65"></circle><circle r="5" cx="1542.45" cy="-90.14" fill="#132e65"></circle><circle r="5" cx="1566.4" cy="90.44" fill="#132e65"></circle><circle r="5" cx="1565.05" cy="196.33" fill="#132e65"></circle><circle r="5" cx="1580.48" cy="405.67" fill="#132e65"></circle><circle r="5" cx="1593.46" cy="558.94" fill="#132e65"></circle><circle r="5" cx="1548.56" cy="667.58" fill="#132e65"></circle><path d="M-112.3 673.2L-112.3 673.2" stroke="hsl(228.5, 77.2%, 51.5%)" stroke-width="1.5"></path><path d="M-112.3 673.2L-74.49 561.16" stroke="hsl(228.5, 77.2%, 51.5%)" stroke-width="1.5"></path><path d="M-112.3 673.2L77.96 640.11" stroke="hsl(228.5, 77.2%, 51.5%)" stroke-width="1.5"></path><path d="M-112.3 673.2L77.31 513.56" stroke="hsl(228.5, 77.2%, 51.5%)" stroke-width="1.5"></path><path d="M-112.3 673.2L252.95 646.3" stroke="hsl(228.5, 77.2%, 51.5%)" stroke-width="1.5"></path><path d="M-112.3 673.2L262.12 514.68" stroke="hsl(228.5, 77.2%, 51.5%)" stroke-width="1.5"></path><path d="M77.31 513.56L77.31 513.56" stroke="hsl(228.5, 77.2%, 51.5%)" stroke-width="1.5"></path><path d="M77.31 513.56L77.96 640.11" stroke="hsl(228.5, 77.2%, 51.5%)" stroke-width="1.5"></path><path d="M650.77 490.18L650.77 490.18" stroke="hsl(228.5, 77.2%, 51.5%)" stroke-width="1.5"></path><path d="M650.77 490.18L538.05 407.97" stroke="hsl(228.5, 77.2%, 51.5%)" stroke-width="1.5"></path><path d="M650.77 490.18L516.84 543.75" stroke="hsl(228.5, 77.2%, 51.5%)" stroke-width="1.5"></path><path d="M650.77 490.18L804.64 510.04" stroke="hsl(228.5, 77.2%, 51.5%)" stroke-width="1.5"></path><path d="M650.77 490.18L793.08 370.41" stroke="hsl(228.5, 77.2%, 51.5%)" stroke-width="1.5"></path><path d="M973.2 650.34L973.2 650.34" stroke="hsl(228.5, 77.2%, 51.5%)" stroke-width="1.5"></path><path d="M973.2 650.34L1096.73 646.24" stroke="hsl(228.5, 77.2%, 51.5%)" stroke-width="1.5"></path><path d="M973.2 650.34L997.79 523.38" stroke="hsl(228.5, 77.2%, 51.5%)" stroke-width="1.5"></path><path d="M973.2 650.34L832.08 707.43" stroke="hsl(228.5, 77.2%, 51.5%)" stroke-width="1.5"></path><path d="M1096.73 646.24L1096.73 646.24" stroke="hsl(228.5, 77.2%, 51.5%)" stroke-width="1.5"></path><path d="M1096.73 646.24L1112.38 530.57" stroke="hsl(228.5, 77.2%, 51.5%)" stroke-width="1.5"></path><path d="M1096.73 646.24L997.79 523.38" stroke="hsl(228.5, 77.2%, 51.5%)" stroke-width="1.5"></path><path d="M1096.73 646.24L1254.93 676.98" stroke="hsl(228.5, 77.2%, 51.5%)" stroke-width="1.5"></path><path d="M1096.73 646.24L1245.69 506.64" stroke="hsl(228.5, 77.2%, 51.5%)" stroke-width="1.5"></path><path d="M1278.5 -40.94L1278.5 -40.94" stroke="hsl(228.5, 77.2%, 51.5%)" stroke-width="1.5"></path><path d="M1278.5 -40.94L1246.76 66.98" stroke="hsl(228.5, 77.2%, 51.5%)" stroke-width="1.5"></path><path d="M1278.5 -40.94L1409.59 -46.13" stroke="hsl(228.5, 77.2%, 51.5%)" stroke-width="1.5"></path><path d="M1256.95 342.71L1256.95 342.71" stroke="hsl(228.5, 77.2%, 51.5%)" stroke-width="1.5"></path><path d="M1256.95 342.71L1250.06 188.7" stroke="hsl(228.5, 77.2%, 51.5%)" stroke-width="1.5"></path><path d="M1409.59 -46.13L1409.59 -46.13" stroke="hsl(228.5, 77.2%, 51.5%)" stroke-width="1.5"></path><path d="M1409.59 -46.13L1443.24 103.46" stroke="hsl(228.5, 77.2%, 51.5%)" stroke-width="1.5"></path><path d="M1572.8 233.33L1572.8 233.33" stroke="hsl(228.5, 77.2%, 51.5%)" stroke-width="1.5"></path><path d="M1572.8 233.33L1551.57 352.89" stroke="hsl(228.5, 77.2%, 51.5%)" stroke-width="1.5"></path><path d="M1572.8 233.33L1408.52 260.06" stroke="hsl(228.5, 77.2%, 51.5%)" stroke-width="1.5"></path><path d="M1572.8 233.33L1443.24 103.46" stroke="hsl(228.5, 77.2%, 51.5%)" stroke-width="1.5"></path><path d="M-74.49 561.16L-74.49 561.16" stroke="hsl(228.5, 77.2%, 51.5%)" stroke-width="1.5"></path><path d="M-74.49 561.16L77.31 513.56" stroke="hsl(228.5, 77.2%, 51.5%)" stroke-width="1.5"></path><path d="M-74.49 561.16L77.96 640.11" stroke="hsl(228.5, 77.2%, 51.5%)" stroke-width="1.5"></path><path d="M-74.49 561.16L252.95 646.3" stroke="hsl(228.5, 77.2%, 51.5%)" stroke-width="1.5"></path><path d="M-74.49 561.16L262.12 514.68" stroke="hsl(228.5, 77.2%, 51.5%)" stroke-width="1.5"></path><path d="M-74.49 561.16L394.71 495.66" stroke="hsl(228.5, 77.2%, 51.5%)" stroke-width="1.5"></path><path d="M77.96 640.11L77.96 640.11" stroke="hsl(228.5, 77.2%, 51.5%)" stroke-width="1.5"></path><path d="M77.96 640.11L252.95 646.3" stroke="hsl(228.5, 77.2%, 51.5%)" stroke-width="1.5"></path><path d="M77.96 640.11L262.12 514.68" stroke="hsl(228.5, 77.2%, 51.5%)" stroke-width="1.5"></path><path d="M77.96 640.11L408.37 700.59" stroke="hsl(228.5, 77.2%, 51.5%)" stroke-width="1.5"></path><path d="M262.12 514.68L262.12 514.68" stroke="hsl(228.5, 77.2%, 51.5%)" stroke-width="1.5"></path><path d="M262.12 514.68L252.95 646.3" stroke="hsl(228.5, 77.2%, 51.5%)" stroke-width="1.5"></path><path d="M262.12 514.68L394.71 495.66" stroke="hsl(228.5, 77.2%, 51.5%)" stroke-width="1.5"></path><path d="M262.12 514.68L77.31 513.56" stroke="hsl(228.5, 77.2%, 51.5%)" stroke-width="1.5"></path><path d="M262.12 514.68L408.37 700.59" stroke="hsl(228.5, 77.2%, 51.5%)" stroke-width="1.5"></path><path d="M252.95 646.3L252.95 646.3" stroke="hsl(228.5, 77.2%, 51.5%)" stroke-width="1.5"></path><path d="M252.95 646.3L408.37 700.59" stroke="hsl(228.5, 77.2%, 51.5%)" stroke-width="1.5"></path><path d="M394.71 495.66L394.71 495.66" stroke="hsl(228.5, 77.2%, 51.5%)" stroke-width="1.5"></path><path d="M394.71 495.66L516.84 543.75" stroke="hsl(228.5, 77.2%, 51.5%)" stroke-width="1.5"></path><path d="M394.71 495.66L538.05 407.97" stroke="hsl(228.5, 77.2%, 51.5%)" stroke-width="1.5"></path><path d="M394.71 495.66L408.37 700.59" stroke="hsl(228.5, 77.2%, 51.5%)" stroke-width="1.5"></path><path d="M408.37 700.59L408.37 700.59" stroke="hsl(228.5, 77.2%, 51.5%)" stroke-width="1.5"></path><path d="M408.37 700.59L537.97 698.24" stroke="hsl(228.5, 77.2%, 51.5%)" stroke-width="1.5"></path><path d="M408.37 700.59L516.84 543.75" stroke="hsl(228.5, 77.2%, 51.5%)" stroke-width="1.5"></path><path d="M408.37 700.59L643.92 704.64" stroke="hsl(228.5, 77.2%, 51.5%)" stroke-width="1.5"></path><path d="M538.05 407.97L538.05 407.97" stroke="hsl(228.5, 77.2%, 51.5%)" stroke-width="1.5"></path><path d="M538.05 407.97L516.84 543.75" stroke="hsl(228.5, 77.2%, 51.5%)" stroke-width="1.5"></path><path d="M516.84 543.75L516.84 543.75" stroke="hsl(228.5, 77.2%, 51.5%)" stroke-width="1.5"></path><path d="M516.84 543.75L537.97 698.24" stroke="hsl(228.5, 77.2%, 51.5%)" stroke-width="1.5"></path><path d="M537.97 698.24L537.97 698.24" stroke="hsl(228.5, 77.2%, 51.5%)" stroke-width="1.5"></path><path d="M537.97 698.24L643.92 704.64" stroke="hsl(228.5, 77.2%, 51.5%)" stroke-width="1.5"></path><path d="M537.97 698.24L650.77 490.18" stroke="hsl(228.5, 77.2%, 51.5%)" stroke-width="1.5"></path><path d="M643.92 704.64L643.92 704.64" stroke="hsl(228.5, 77.2%, 51.5%)" stroke-width="1.5"></path><path d="M793.08 370.41L793.08 370.41" stroke="hsl(228.5, 77.2%, 51.5%)" stroke-width="1.5"></path><path d="M793.08 370.41L804.64 510.04" stroke="hsl(228.5, 77.2%, 51.5%)" stroke-width="1.5"></path><path d="M793.08 370.41L968.89 409.01" stroke="hsl(228.5, 77.2%, 51.5%)" stroke-width="1.5"></path><path d="M804.64 510.04L804.64 510.04" stroke="hsl(228.5, 77.2%, 51.5%)" stroke-width="1.5"></path><path d="M804.64 510.04L968.89 409.01" stroke="hsl(228.5, 77.2%, 51.5%)" stroke-width="1.5"></path><path d="M804.64 510.04L997.79 523.38" stroke="hsl(228.5, 77.2%, 51.5%)" stroke-width="1.5"></path><path d="M804.64 510.04L832.08 707.43" stroke="hsl(228.5, 77.2%, 51.5%)" stroke-width="1.5"></path><path d="M804.64 510.04L973.2 650.34" stroke="hsl(228.5, 77.2%, 51.5%)" stroke-width="1.5"></path><path d="M832.08 707.43L832.08 707.43" stroke="hsl(228.5, 77.2%, 51.5%)" stroke-width="1.5"></path><path d="M832.08 707.43L643.92 704.64" stroke="hsl(228.5, 77.2%, 51.5%)" stroke-width="1.5"></path><path d="M832.08 707.43L997.79 523.38" stroke="hsl(228.5, 77.2%, 51.5%)" stroke-width="1.5"></path><path d="M968.89 409.01L968.89 409.01" stroke="hsl(228.5, 77.2%, 51.5%)" stroke-width="1.5"></path><path d="M968.89 409.01L997.79 523.38" stroke="hsl(228.5, 77.2%, 51.5%)" stroke-width="1.5"></path><path d="M968.89 409.01L1089.78 397.15" stroke="hsl(228.5, 77.2%, 51.5%)" stroke-width="1.5"></path><path d="M968.89 409.01L1112.38 530.57" stroke="hsl(228.5, 77.2%, 51.5%)" stroke-width="1.5"></path><path d="M997.79 523.38L997.79 523.38" stroke="hsl(228.5, 77.2%, 51.5%)" stroke-width="1.5"></path><path d="M997.79 523.38L1112.38 530.57" stroke="hsl(228.5, 77.2%, 51.5%)" stroke-width="1.5"></path><path d="M1128.62 215.14L1128.62 215.14" stroke="hsl(228.5, 77.2%, 51.5%)" stroke-width="1.5"></path><path d="M1128.62 215.14L1250.06 188.7" stroke="hsl(228.5, 77.2%, 51.5%)" stroke-width="1.5"></path><path d="M1128.62 215.14L1256.95 342.71" stroke="hsl(228.5, 77.2%, 51.5%)" stroke-width="1.5"></path><path d="M1128.62 215.14L1089.78 397.15" stroke="hsl(228.5, 77.2%, 51.5%)" stroke-width="1.5"></path><path d="M1089.78 397.15L1089.78 397.15" stroke="hsl(228.5, 77.2%, 51.5%)" stroke-width="1.5"></path><path d="M1089.78 397.15L1112.38 530.57" stroke="hsl(228.5, 77.2%, 51.5%)" stroke-width="1.5"></path><path d="M1089.78 397.15L997.79 523.38" stroke="hsl(228.5, 77.2%, 51.5%)" stroke-width="1.5"></path><path d="M1089.78 397.15L1256.95 342.71" stroke="hsl(228.5, 77.2%, 51.5%)" stroke-width="1.5"></path><path d="M1112.38 530.57L1112.38 530.57" stroke="hsl(228.5, 77.2%, 51.5%)" stroke-width="1.5"></path><path d="M1112.38 530.57L1245.69 506.64" stroke="hsl(228.5, 77.2%, 51.5%)" stroke-width="1.5"></path><path d="M1246.76 66.98L1246.76 66.98" stroke="hsl(228.5, 77.2%, 51.5%)" stroke-width="1.5"></path><path d="M1246.76 66.98L1250.06 188.7" stroke="hsl(228.5, 77.2%, 51.5%)" stroke-width="1.5"></path><path d="M1246.76 66.98L1128.62 215.14" stroke="hsl(228.5, 77.2%, 51.5%)" stroke-width="1.5"></path><path d="M1246.76 66.98L1409.59 -46.13" stroke="hsl(228.5, 77.2%, 51.5%)" stroke-width="1.5"></path><path d="M1246.76 66.98L1443.24 103.46" stroke="hsl(228.5, 77.2%, 51.5%)" stroke-width="1.5"></path><path d="M1250.06 188.7L1250.06 188.7" stroke="hsl(228.5, 77.2%, 51.5%)" stroke-width="1.5"></path><path d="M1250.06 188.7L1408.52 260.06" stroke="hsl(228.5, 77.2%, 51.5%)" stroke-width="1.5"></path><path d="M1245.69 506.64L1245.69 506.64" stroke="hsl(228.5, 77.2%, 51.5%)" stroke-width="1.5"></path><path d="M1245.69 506.64L1256.95 342.71" stroke="hsl(228.5, 77.2%, 51.5%)" stroke-width="1.5"></path><path d="M1245.69 506.64L1254.93 676.98" stroke="hsl(228.5, 77.2%, 51.5%)" stroke-width="1.5"></path><path d="M1245.69 506.64L1089.78 397.15" stroke="hsl(228.5, 77.2%, 51.5%)" stroke-width="1.5"></path><path d="M1245.69 506.64L1439.6 539.94" stroke="hsl(228.5, 77.2%, 51.5%)" stroke-width="1.5"></path><path d="M1254.93 676.98L1254.93 676.98" stroke="hsl(228.5, 77.2%, 51.5%)" stroke-width="1.5"></path><path d="M1254.93 676.98L1445.03 644.78" stroke="hsl(228.5, 77.2%, 51.5%)" stroke-width="1.5"></path><path d="M1254.93 676.98L1112.38 530.57" stroke="hsl(228.5, 77.2%, 51.5%)" stroke-width="1.5"></path><path d="M1254.93 676.98L1439.6 539.94" stroke="hsl(228.5, 77.2%, 51.5%)" stroke-width="1.5"></path><path d="M1254.93 676.98L973.2 650.34" stroke="hsl(228.5, 77.2%, 51.5%)" stroke-width="1.5"></path><path d="M1443.24 103.46L1443.24 103.46" stroke="hsl(228.5, 77.2%, 51.5%)" stroke-width="1.5"></path><path d="M1443.24 103.46L1408.52 260.06" stroke="hsl(228.5, 77.2%, 51.5%)" stroke-width="1.5"></path><path d="M1408.52 260.06L1408.52 260.06" stroke="hsl(228.5, 77.2%, 51.5%)" stroke-width="1.5"></path><path d="M1408.52 260.06L1446.8 404.01" stroke="hsl(228.5, 77.2%, 51.5%)" stroke-width="1.5"></path><path d="M1446.8 404.01L1446.8 404.01" stroke="hsl(228.5, 77.2%, 51.5%)" stroke-width="1.5"></path><path d="M1446.8 404.01L1551.57 352.89" stroke="hsl(228.5, 77.2%, 51.5%)" stroke-width="1.5"></path><path d="M1446.8 404.01L1549.98 489.58" stroke="hsl(228.5, 77.2%, 51.5%)" stroke-width="1.5"></path><path d="M1446.8 404.01L1439.6 539.94" stroke="hsl(228.5, 77.2%, 51.5%)" stroke-width="1.5"></path><path d="M1446.8 404.01L1256.95 342.71" stroke="hsl(228.5, 77.2%, 51.5%)" stroke-width="1.5"></path><path d="M1446.8 404.01L1572.8 233.33" stroke="hsl(228.5, 77.2%, 51.5%)" stroke-width="1.5"></path><path d="M1439.6 539.94L1439.6 539.94" stroke="hsl(228.5, 77.2%, 51.5%)" stroke-width="1.5"></path><path d="M1439.6 539.94L1445.03 644.78" stroke="hsl(228.5, 77.2%, 51.5%)" stroke-width="1.5"></path><path d="M1439.6 539.94L1549.98 489.58" stroke="hsl(228.5, 77.2%, 51.5%)" stroke-width="1.5"></path><path d="M1445.03 644.78L1445.03 644.78" stroke="hsl(228.5, 77.2%, 51.5%)" stroke-width="1.5"></path><path d="M1445.03 644.78L1607.74 643.54" stroke="hsl(228.5, 77.2%, 51.5%)" stroke-width="1.5"></path><path d="M1586.18 -54.46L1586.18 -54.46" stroke="hsl(228.5, 77.2%, 51.5%)" stroke-width="1.5"></path><path d="M1586.18 -54.46L1409.59 -46.13" stroke="hsl(228.5, 77.2%, 51.5%)" stroke-width="1.5"></path><path d="M1586.18 -54.46L1443.24 103.46" stroke="hsl(228.5, 77.2%, 51.5%)" stroke-width="1.5"></path><path d="M1586.18 -54.46L1572.8 233.33" stroke="hsl(228.5, 77.2%, 51.5%)" stroke-width="1.5"></path><path d="M1586.18 -54.46L1278.5 -40.94" stroke="hsl(228.5, 77.2%, 51.5%)" stroke-width="1.5"></path><path d="M1586.18 -54.46L1246.76 66.98" stroke="hsl(228.5, 77.2%, 51.5%)" stroke-width="1.5"></path><path d="M1551.57 352.89L1551.57 352.89" stroke="hsl(228.5, 77.2%, 51.5%)" stroke-width="1.5"></path><path d="M1551.57 352.89L1549.98 489.58" stroke="hsl(228.5, 77.2%, 51.5%)" stroke-width="1.5"></path><path d="M1551.57 352.89L1408.52 260.06" stroke="hsl(228.5, 77.2%, 51.5%)" stroke-width="1.5"></path><path d="M1551.57 352.89L1439.6 539.94" stroke="hsl(228.5, 77.2%, 51.5%)" stroke-width="1.5"></path><path d="M1551.57 352.89L1443.24 103.46" stroke="hsl(228.5, 77.2%, 51.5%)" stroke-width="1.5"></path><path d="M1549.98 489.58L1549.98 489.58" stroke="hsl(228.5, 77.2%, 51.5%)" stroke-width="1.5"></path><path d="M1549.98 489.58L1607.74 643.54" stroke="hsl(228.5, 77.2%, 51.5%)" stroke-width="1.5"></path><path d="M1549.98 489.58L1445.03 644.78" stroke="hsl(228.5, 77.2%, 51.5%)" stroke-width="1.5"></path><path d="M1549.98 489.58L1572.8 233.33" stroke="hsl(228.5, 77.2%, 51.5%)" stroke-width="1.5"></path><path d="M1607.74 643.54L1607.74 643.54" stroke="hsl(228.5, 77.2%, 51.5%)" stroke-width="1.5"></path><path d="M1607.74 643.54L1439.6 539.94" stroke="hsl(228.5, 77.2%, 51.5%)" stroke-width="1.5"></path><circle r="25" cx="-112.3" cy="673.2" fill="url(#SvgjsRadialGradient1001)"></circle><circle r="25" cx="77.31" cy="513.56" fill="url(#SvgjsRadialGradient1001)"></circle><circle r="25" cx="650.77" cy="490.18" fill="url(#SvgjsRadialGradient1001)"></circle><circle r="25" cx="973.2" cy="650.34" fill="url(#SvgjsRadialGradient1001)"></circle><circle r="25" cx="1096.73" cy="646.24" fill="url(#SvgjsRadialGradient1001)"></circle><circle r="25" cx="1278.5" cy="-40.94" fill="url(#SvgjsRadialGradient1001)"></circle><circle r="25" cx="1256.95" cy="342.71" fill="url(#SvgjsRadialGradient1001)"></circle><circle r="25" cx="1409.59" cy="-46.13" fill="url(#SvgjsRadialGradient1001)"></circle><circle r="25" cx="1572.8" cy="233.33" fill="url(#SvgjsRadialGradient1001)"></circle><circle r="5" cx="-74.49" cy="561.16" fill="#8b9ad9"></circle><circle r="5" cx="77.96" cy="640.11" fill="#8b9ad9"></circle><circle r="5" cx="262.12" cy="514.68" fill="#8b9ad9"></circle><circle r="5" cx="252.95" cy="646.3" fill="#8b9ad9"></circle><circle r="5" cx="394.71" cy="495.66" fill="#8b9ad9"></circle><circle r="5" cx="408.37" cy="700.59" fill="#8b9ad9"></circle><circle r="5" cx="538.05" cy="407.97" fill="#8b9ad9"></circle><circle r="5" cx="516.84" cy="543.75" fill="#8b9ad9"></circle><circle r="5" cx="537.97" cy="698.24" fill="#8b9ad9"></circle><circle r="5" cx="643.92" cy="704.64" fill="#8b9ad9"></circle><circle r="5" cx="793.08" cy="370.41" fill="#8b9ad9"></circle><circle r="5" cx="804.64" cy="510.04" fill="#8b9ad9"></circle><circle r="5" cx="832.08" cy="707.43" fill="#8b9ad9"></circle><circle r="5" cx="968.89" cy="409.01" fill="#8b9ad9"></circle><circle r="5" cx="997.79" cy="523.38" fill="#8b9ad9"></circle><circle r="5" cx="1128.62" cy="215.14" fill="#8b9ad9"></circle><circle r="5" cx="1089.78" cy="397.15" fill="#8b9ad9"></circle><circle r="5" cx="1112.38" cy="530.57" fill="#8b9ad9"></circle><circle r="5" cx="1246.76" cy="66.98" fill="#8b9ad9"></circle><circle r="5" cx="1250.06" cy="188.7" fill="#8b9ad9"></circle><circle r="5" cx="1245.69" cy="506.64" fill="#8b9ad9"></circle><circle r="5" cx="1254.93" cy="676.98" fill="#8b9ad9"></circle><circle r="5" cx="1443.24" cy="103.46" fill="#8b9ad9"></circle><circle r="5" cx="1408.52" cy="260.06" fill="#8b9ad9"></circle><circle r="5" cx="1446.8" cy="404.01" fill="#8b9ad9"></circle><circle r="5" cx="1439.6" cy="539.94" fill="#8b9ad9"></circle><circle r="5" cx="1445.03" cy="644.78" fill="#8b9ad9"></circle><circle r="5" cx="1586.18" cy="-54.46" fill="#8b9ad9"></circle><circle r="5" cx="1551.57" cy="352.89" fill="#8b9ad9"></circle><circle r="5" cx="1549.98" cy="489.58" fill="#8b9ad9"></circle><circle r="5" cx="1607.74" cy="643.54" fill="#8b9ad9"></circle></g><defs><mask id="SvgjsMask1000"><rect width="1440" height="560" fill="#ffffff"></rect></mask><radialGradient id="SvgjsRadialGradient1001"><stop stop-color="#ffffff" offset="0.1"></stop><stop stop-color="#1735b3" offset="0.2"></stop><stop stop-color="rgba(23, 53, 179, 0)" offset="1"></stop></radialGradient></defs></svg>